<?xml version="1.0" encoding="utf-8"?><svg viewBox="0 0 105 106" xmlns="http://www.w3.org/2000/svg" xmlns:xlink="http://www.w3.org/1999/xlink"><style>:root>svg{display:none}:root>svg:target{display:block}</style><svg fill="none" viewBox="0 0 8 12" id="Arrow" xmlns="http://www.w3.org/2000/svg"><path d="M4.5 1a.5.5 0 00-1 0h1zm-.854 10.354a.5.5 0 00.708 0l3.182-3.182a.5.5 0 10-.708-.708L4 10.293 1.172 7.464a.5.5 0 10-.708.708l3.182 3.182zM3.5 1v10h1V1h-1z" fill="#BDBDBD"/></svg><svg fill="none" viewBox="0 0 105 99" id="benefits" xmlns="http://www.w3.org/2000/svg"><path fill-rule="evenodd" clip-rule="evenodd" d="M53.027 1.803C66.433-.517 81.63-2.067 91.974 6.77c10.774 9.204 13.062 24.79 12.458 38.948-.577 13.513-6.255 26.025-15.646 35.759-9.581 9.93-21.96 17.473-35.76 17.523-13.84.05-26.323-7.386-36.018-17.264C7.414 71.961-1.102 59.291.73 45.718 2.444 33.002 15.744 26.51 25.57 18.26c8.495-7.133 16.527-14.565 27.458-16.457z" fill="url(#bpaint0_linear_42_20)" fill-opacity=".94"/><defs><linearGradient id="bpaint0_linear_42_20" x1=".214" y1="105.59" x2="94.709" y2="47.677" gradientUnits="userSpaceOnUse"><stop stop-color="#C5C5A8"/><stop offset="1" stop-color="#E2E1CF"/><stop offset="1" stop-color="#E2E1CF"/></linearGradient></defs></svg><svg fill="none" viewBox="0 0 64 64" id="bonus" xmlns="http://www.w3.org/2000/svg"><path d="M56.435 33.61a16.285 16.285 0 00-6.653-5.888 1.25 1.25 0 10-1.083 2.253c4.739 2.278 7.8 7.145 7.8 12.4 0 2.248-.554 4.478-1.602 6.449a1.25 1.25 0 102.207 1.174A16.283 16.283 0 0059 42.375c0-3.12-.887-6.151-2.565-8.766zM36.8 54.775c-4.738-2.278-7.8-7.145-7.8-12.4 0-2.248.554-4.478 1.603-6.449a1.25 1.25 0 10-2.207-1.174 16.283 16.283 0 00-1.896 7.623c0 3.12.887 6.151 2.565 8.766a16.288 16.288 0 006.652 5.887 1.25 1.25 0 101.083-2.253z" fill="#424242"/><path d="M48.426 21.896a5.738 5.738 0 00-.555-1.021h3.254c3.17 0 5.75-2.58 5.75-5.75s-2.58-5.75-5.75-5.75h-10.01a5.716 5.716 0 001.01-3.25c0-3.17-2.58-5.75-5.75-5.75H5.75C2.58.375 0 2.955 0 6.125s2.58 5.75 5.75 5.75h10.01a5.716 5.716 0 00-1.01 3.25c0 1.205.373 2.325 1.01 3.25H12.5c-3.17 0-5.75 2.58-5.75 5.75a5.74 5.74 0 002.177 4.5 5.74 5.74 0 000 9 5.74 5.74 0 000 9 5.74 5.74 0 00-2.177 4.5c0 3.17 2.58 5.75 5.75 5.75h14.731c3.88 4.15 9.402 6.75 15.519 6.75 11.717 0 21.25-9.533 21.25-21.25 0-9.752-6.604-17.99-15.574-20.479zm2.699-10.021a3.254 3.254 0 013.25 3.25 3.254 3.254 0 01-3.25 3.25H20.5a3.254 3.254 0 01-3.25-3.25 3.254 3.254 0 013.25-3.25h30.625zM5.75 9.375a3.254 3.254 0 01-3.25-3.25 3.254 3.254 0 013.25-3.25h30.625a3.254 3.254 0 013.25 3.25 3.254 3.254 0 01-3.25 3.25H5.75zm6.75 11.5h30.625c.503 0 .986.117 1.418.326a21.395 21.395 0 00-1.793-.076c-5.868 0-11.188 2.391-15.037 6.25H12.5a3.254 3.254 0 01-3.25-3.25 3.254 3.254 0 013.25-3.25zm0 9h13.077a21.19 21.19 0 00-3.213 6.5H12.5a3.254 3.254 0 01-3.25-3.25 3.254 3.254 0 013.25-3.25zm0 9h9.29a21.292 21.292 0 00-.077 6.5H12.5a3.254 3.254 0 01-3.25-3.25 3.254 3.254 0 013.25-3.25zm0 15.5a3.254 3.254 0 01-3.25-3.25 3.254 3.254 0 013.25-3.25h9.723a21.168 21.168 0 003 6.5H12.5zm30.25 6.75c-10.339 0-18.75-8.411-18.75-18.75s8.411-18.75 18.75-18.75 18.75 8.411 18.75 18.75-8.411 18.75-18.75 18.75z" fill="#424242"/></svg><svg fill="none" viewBox="0 0 17 8" id="breadcrambs-arrow" xmlns="http://www.w3.org/2000/svg"><path d="M16.354 4.354a.5.5 0 000-.708L13.172.464a.5.5 0 10-.708.708L15.293 4l-2.829 2.828a.5.5 0 10.708.708l3.182-3.182zM0 4.5h16v-1H0v1z" fill="#424242"/></svg><svg viewBox="0 0 11 11" id="cart" xmlns="http://www.w3.org/2000/svg"><path d="M5.081.555L3.214 3.667h4.572L5.918.555l.63-.377 2.093 3.489h1.844c.284 0 .515.23.515.515v.322c0 2.159-.503 4.288-1.468 6.219a.502.502 0 01-.449.277H1.917a.502.502 0 01-.449-.278A13.904 13.904 0 010 4.503v-.32c0-.285.231-.516.516-.516h1.843L4.451.178l.63.377z"/></svg><svg fill="none" viewBox="0 0 17 14" id="check" xmlns="http://www.w3.org/2000/svg"><path d="M1.221 6.952l5.36 5.36 8.933-10.72" stroke="url(#fpaint0_linear_213_38)" stroke-width="1.787" stroke-linecap="round" stroke-linejoin="round"/><defs><linearGradient id="fpaint0_linear_213_38" x1="-1.869" y1="-5.108" x2="18.49" y2=".902" gradientUnits="userSpaceOnUse"><stop stop-color="#976464"/><stop offset="1" stop-color="#CFA5A5"/></linearGradient></defs></svg><svg fill="none" viewBox="0 0 35 36" id="comments" xmlns="http://www.w3.org/2000/svg"><path fill-rule="evenodd" clip-rule="evenodd" d="M26.701 30.817l4.41 4.426V27.13C33.541 24.28 35 20.651 35 16.7 35 7.538 27.164.11 17.5.11S0 7.538 0 16.7c0 9.163 7.836 16.592 17.5 16.592a18.13 18.13 0 009.201-2.475z" fill="#fff"/></svg><svg fill="none" viewBox="0 0 24 24" id="del" xmlns="http://www.w3.org/2000/svg"><path d="M22.5 5.25h-6V3A2.253 2.253 0 0014.25.75h-4.5A2.252 2.252 0 007.5 3v2.25h-6a.75.75 0 000 1.5h21a.75.75 0 100-1.5zM9 5.25V3a.75.75 0 01.75-.75h4.5A.75.75 0 0115 3v2.25H9zM5.761 22.623a.75.75 0 00.74.627h11a.75.75 0 00.739-.627L20.636 8.25H3.366L5.76 22.623zM13.501 12a.75.75 0 011.5 0v7.5a.75.75 0 11-1.5 0V12zM9 12a.75.75 0 111.5 0v7.5a.75.75 0 11-1.5 0V12z" fill="#BDBDBD"/></svg><svg fill="none" viewBox="0 0 19 19" id="exit" xmlns="http://www.w3.org/2000/svg"><path d="M18 3L10.875.624a.594.594 0 00-.781.563v1.781h-4.75a1.189 1.189 0 00-1.188 1.188v1.78a.594.594 0 001.188 0v-1.78h4.75v10.687h-4.75v-1.782a.594.594 0 00-1.188 0v1.782a1.189 1.189 0 001.188 1.187h4.75v1.781a.592.592 0 00.504.587.593.593 0 00.277-.023L18 16a.593.593 0 00.406-.564V3.563A.593.593 0 0018 2.999zm-3.75 7.094h-1.188a.594.594 0 010-1.188h1.188a.594.594 0 110 1.188z" fill="#BDBDBD"/><path d="M6.111 10.861a.594.594 0 00.84.84L8.732 9.92a.596.596 0 000-.84L6.951 7.299a.594.594 0 10-.84.84l.768.767H1.188a.594.594 0 000 1.188h5.691l-.768.768z" fill="#BDBDBD"/></svg><svg fill="none" viewBox="0 0 20 20" id="eye" xmlns="http://www.w3.org/2000/svg"><path d="M7.734 10a2.187 2.187 0 104.375 0 2.187 2.187 0 00-4.375 0zm10.668-.504c-1.852-3.9-4.65-5.863-8.403-5.863S3.45 5.596 1.598 9.498a1.178 1.178 0 000 1.006c1.852 3.9 4.65 5.863 8.402 5.863 3.754 0 6.551-1.963 8.403-5.865.15-.317.15-.684 0-1.006zm-8.48 3.941a3.438 3.438 0 110-6.875 3.438 3.438 0 010 6.875z" fill="#BDBDBD"/></svg><svg viewBox="0 0 14 14" id="favorites" xmlns="http://www.w3.org/2000/svg"><path d="M12.834 2.971c-.521-1.07-2.022-1.944-3.768-1.435A3.838 3.838 0 007 3.002a3.838 3.838 0 00-2.065-1.466c-1.75-.502-3.248.366-3.769 1.435-.73 1.497-.428 3.181.902 5.005 1.043 1.427 2.532 2.874 4.694 4.554a.389.389 0 00.479 0c2.158-1.676 3.651-3.111 4.693-4.554 1.327-1.824 1.63-3.508.899-5.005z"/></svg><svg fill="none" viewBox="0 0 24 24" id="instagram" xmlns="http://www.w3.org/2000/svg"><path d="M12 2c2.717 0 3.056.01 4.122.06 1.065.05 1.79.217 2.428.465.66.254 1.216.598 1.772 1.153.509.5.902 1.105 1.153 1.772.247.637.415 1.363.465 2.428.047 1.066.06 1.405.06 4.122 0 2.717-.01 3.056-.06 4.122-.05 1.065-.218 1.79-.465 2.428a4.883 4.883 0 01-1.153 1.772c-.5.508-1.105.902-1.772 1.153-.637.247-1.363.415-2.428.465-1.066.047-1.405.06-4.122.06-2.717 0-3.056-.01-4.122-.06-1.065-.05-1.79-.218-2.428-.465a4.89 4.89 0 01-1.772-1.153 4.904 4.904 0 01-1.153-1.772c-.248-.637-.415-1.363-.465-2.428C2.013 15.056 2 14.717 2 12c0-2.717.01-3.056.06-4.122.05-1.066.217-1.79.465-2.428a4.88 4.88 0 011.153-1.772A4.897 4.897 0 015.45 2.525c.638-.248 1.362-.415 2.428-.465C8.944 2.013 9.283 2 12 2zm0 5a5 5 0 100 10 5 5 0 000-10zm6.5-.25a1.25 1.25 0 10-2.5 0 1.25 1.25 0 002.5 0zM12 9a3 3 0 110 6 3 3 0 010-6z" fill="#424242"/></svg><svg fill="none" viewBox="0 0 37 35" id="likes" xmlns="http://www.w3.org/2000/svg"><path fill-rule="evenodd" clip-rule="evenodd" d="M18.438 3.029c10.229-10.515 35.802 7.884 0 31.543-35.803-23.656-10.229-42.058 0-31.543z" fill="#fff"/></svg><svg viewBox="0 0 10 15" id="location" xmlns="http://www.w3.org/2000/svg"><path d="M5 14.064s5-4.86 5-8.548c0-1.36-.527-2.665-1.464-3.627A4.937 4.937 0 005 .387c-1.326 0-2.598.54-3.536 1.502A5.197 5.197 0 000 5.516c0 3.687 5 8.548 5 8.548zM5 8.08c-.663 0-1.299-.27-1.768-.751A2.598 2.598 0 012.5 5.516c0-.68.263-1.333.732-1.814A2.469 2.469 0 015 2.952c.663 0 1.299.27 1.768.75.469.481.732 1.133.732 1.814 0 .68-.263 1.332-.732 1.813A2.469 2.469 0 015 8.08z"/></svg><svg fill="none" viewBox="0 0 103 106" id="page-top-arrow" xmlns="http://www.w3.org/2000/svg"><path d="M85.306 81.172s-.761-.067-2.192-.213c-.71-.072-1.605-.246-2.644-.415-.522-.088-1.066-.234-1.655-.358a25.922 25.922 0 01-1.854-.448 45.512 45.512 0 01-9.088-3.57A47.356 47.356 0 0157.51 68.76a43.599 43.599 0 01-9.088-12.24 27.631 27.631 0 01-2.518-8.057 18.46 18.46 0 01.792-8.864A18.536 18.536 0 0151.8 31.98a15.189 15.189 0 018.483-3.894c3.242-.277 6.48.574 9.192 2.417 2.817 1.814 4.947 4.557 6.04 7.779.26.815.44 1.655.535 2.507.052.444.064.834.076 1.318.012.484-.003.764-.065 1.218a15.592 15.592 0 01-1.265 4.9 20.65 20.65 0 01-5.974 7.637 35.732 35.732 0 01-8.021 4.745 72.414 72.414 0 01-8.328 3.184 41.913 41.913 0 01-16.843 1.796 36.564 36.564 0 01-14.473-4.881 48.242 48.242 0 01-10.146-8.066 21.7 21.7 0 01-5.199-8.795 13.66 13.66 0 01-.38-6.674c.135-.574.313-1.137.53-1.684l.24-.563a.585.585 0 01.32-.31.565.565 0 01.733.311.6.6 0 01.016.426l-.17.517a10.956 10.956 0 00-.324 1.535c-.24 1.991.003 4.013.707 5.885a20.782 20.782 0 005.12 7.733 49.118 49.118 0 009.806 7.38 35.526 35.526 0 0013.53 4.397 39.524 39.524 0 0015.812-1.604 72.26 72.26 0 008.047-3.019 35.565 35.565 0 007.499-4.255c2.314-1.727 4.188-4 5.462-6.629a13.157 13.157 0 001.154-4.108c.04-.37.061-.74.064-1.113-.002-.297-.004-.688-.04-1.032a10.405 10.405 0 00-.403-2.086 13.444 13.444 0 00-5.068-6.8 12.898 12.898 0 00-8.038-2.297 13.596 13.596 0 00-7.643 3.35 16.993 16.993 0 00-4.783 6.927 16.887 16.887 0 00-.842 8.2 25.53 25.53 0 002.358 7.688 42.578 42.578 0 008.733 11.902 46.292 46.292 0 0010.087 7.284 40.582 40.582 0 008.913 3.457c.634.194 1.247.318 1.842.46.595.14 1.117.263 1.616.339 1.01.14 1.855.307 2.588.357l2.112.188a.565.565 0 01.43.191.598.598 0 01.151.456.606.606 0 01-.228.42.572.572 0 01-.457.11v-.012z" fill="#5E5C5A"/><path d="M86.953 76.615c.325.308.67.594 1.03.857.356.267.722.522 1.1.754.755.47 1.55.87 2.374 1.194a.814.814 0 01.415.424c.08.19.089.405.023.6a.756.756 0 01-.271.353l-.235.167c-.883.642-1.732 1.344-2.648 1.94-.223.154-.457.285-.704.44a6.03 6.03 0 01-.72.423 6.122 6.122 0 01-1.552.541l-.998-1.767c.313-.058.633-.072.95-.04a.679.679 0 01.47.257.715.715 0 01.152.525.84.84 0 01-.071.256 4.044 4.044 0 01-.55.792.909.909 0 01-1.303.124.966.966 0 01-.121-1.337l.427-.554c.357-.455.781-.85 1.258-1.168a6.99 6.99 0 01.71-.435c.245-.131.486-.269.754-.388a21.34 21.34 0 013.162-1.14l-.063 1.538a96.451 96.451 0 00-2.146-1.745l-1.088-.835c-.355-.278-.738-.55-1.105-.806a.58.58 0 01-.247-.374.601.601 0 01.244-.608.564.564 0 01.64-.001l.113.013z" fill="#5E5C5A"/></svg><svg fill="none" viewBox="0 0 16 15" id="pencil" xmlns="http://www.w3.org/2000/svg"><path d="M5.805 12.317L12 6.509 9.057 3.75 2.862 9.558a.618.618 0 00-.175.29L2 13.125l3.495-.644a.68.68 0 00.31-.164zM14 4.634c.25-.235.39-.553.39-.884 0-.331-.14-.65-.39-.884l-1.057-.991A1.38 1.38 0 0012 1.509a1.38 1.38 0 00-.943.366L10 2.866l2.943 2.759L14 4.634z" fill="#BDBDBD"/></svg><svg viewBox="0 0 14 14" id="phone" xmlns="http://www.w3.org/2000/svg"><path d="M10.5 5.688h-.875a1.314 1.314 0 00-1.313-1.313V3.5A2.19 2.19 0 0110.5 5.688z"/><path d="M12.25 5.688h-.875a3.066 3.066 0 00-3.063-3.063V1.75a3.942 3.942 0 013.938 3.938zM8.896 9.398l.98-.98a.948.948 0 011.023-.21l1.193.478a.948.948 0 01.596.88v2.17a.95.95 0 01-1 .95C3.324 12.166 1.634 5.079 1.32 2.366a.946.946 0 01.942-1.054h2.132a.948.948 0 01.88.596l.478 1.194a.948.948 0 01-.21 1.022l-.98.98s.543 3.82 4.334 4.294z"/></svg><svg fill="none" viewBox="0 0 70 69" id="prod" xmlns="http://www.w3.org/2000/svg"><g clip-path="url(#qclip0_112_502)"><path d="M64.9 9.2a4.6 4.6 0 00-4.6 4.6c.005.77.206 1.526.584 2.196l-2.27 2.133a29.013 29.013 0 00-7.245-7.245l2.134-2.268c.671.378 1.427.579 2.197.584a4.632 4.632 0 10-3.88-2.152L49.396 9.63c-11.554-6.702-26.203-4.558-35.35 5.175-9.149 9.733-10.383 24.486-2.979 35.603L.812 61.312a1.15 1.15 0 101.676 1.576l9.958-10.59a29.064 29.064 0 004.755 4.756L6.612 67.012a1.15 1.15 0 001.576 1.676l10.904-10.255c12.022 8.015 28.13 5.836 37.59-5.086l4.83.416a2.448 2.448 0 01-.212 4.887 4.455 4.455 0 00-4.45 4.45v4.75a1.15 1.15 0 002.3 0V63.1a2.153 2.153 0 012.152-2.15 4.748 4.748 0 00.407-9.478l-3.32-.285a28.65 28.65 0 001.48-31.083l2.583-2.424A4.6 4.6 0 1064.9 9.2zm-9.2-6.9a2.3 2.3 0 11-1.565 3.976v-.007l-.014-.008A2.3 2.3 0 0155.7 2.3zM11.102 45.824c18.713-1.642 33.96-15.706 37.106-34.225a26.481 26.481 0 013.833 2.694C49.918 34.187 33.2 49.317 13.195 49.45a26.505 26.505 0 01-2.093-3.626zM8.55 34.5c0-2.08.247-4.15.735-6.172a41.54 41.54 0 003.191 8.076 38.29 38.29 0 01-3.778.888A26.664 26.664 0 018.55 34.5zm6.149 1.183a39.237 39.237 0 01-4.025-11.565 26.458 26.458 0 013.52-5.92 42.263 42.263 0 005.782 15.152 38.884 38.884 0 01-5.277 2.333zm27.074-26.75c1.469.39 2.9.907 4.278 1.546-2.718 18.087-17.644 31.854-35.891 33.106a26.27 26.27 0 01-1.116-4.025 41.563 41.563 0 0032.73-30.627zM28.456 27.265a39.78 39.78 0 01-6.198-15.934 26.375 26.375 0 013.826-1.725 44.292 44.292 0 006.478 13.124 39.367 39.367 0 01-4.106 4.535zm11.07-18.82a38.689 38.689 0 01-5.53 12.338 42.034 42.034 0 01-5.717-11.866 26.318 26.318 0 0111.246-.471zM20.142 12.63a42.098 42.098 0 006.577 16.167 39.591 39.591 0 01-4.74 3.41 39.888 39.888 0 01-5.78-16.284 26.69 26.69 0 013.943-3.293zm-5.206 39.077c19.84-.97 36.24-15.808 39.184-35.453a26.592 26.592 0 013.572 4.677C55.283 40.517 38.634 55.224 18.9 55.2h-.345a26.625 26.625 0 01-3.618-3.494zm26.579-.92a41.6 41.6 0 0012.12 2.459 26.586 26.586 0 01-4.561 3.628 39.605 39.605 0 01-13.753-2.76 41.385 41.385 0 006.194-3.326zm14.128.221a39.56 39.56 0 01-11.797-1.853 41.374 41.374 0 004.485-3.92c3.165.98 6.39 1.76 9.653 2.333a26.535 26.535 0 01-2.341 3.441zm-5.572-7.64a41.507 41.507 0 003.488-4.588 44.218 44.218 0 007.13 1.987 26.228 26.228 0 01-1.61 4.654 83.794 83.794 0 01-9.008-2.051v-.001zM21.775 57.392A41.341 41.341 0 0032.25 55.3a41.831 41.831 0 0012.91 3.617 26.378 26.378 0 01-23.385-1.527zm39.371-18.877a41.874 41.874 0 01-6.36-1.734 41.067 41.067 0 004.667-12.348 26.467 26.467 0 011.693 14.082zM64.9 16.1a2.29 2.29 0 01-1.66-.717l-.009-.013h-.007a2.293 2.293 0 111.676.73z" fill="#424242"/></g><defs><clipPath id="qclip0_112_502"><path fill="#fff" transform="translate(.5)" d="M0 0h69v69H0z"/></clipPath></defs></svg><svg fill="none" viewBox="0 0 13 13" id="search" xmlns="http://www.w3.org/2000/svg"><path d="M11.603 12.635a.554.554 0 00.794-.774l-.794.774zM9.8 9.192a.554.554 0 10-.794.774l.794-.774zM1 6.012H.446 1zM5.921.964V.41v.554zm6.476 10.897L9.8 9.192l-.794.774 2.597 2.669.794-.774zm-2.11-5.849a4.56 4.56 0 01-1.283 3.183l.794.774a5.669 5.669 0 001.598-3.957h-1.108zM9.005 9.195a4.305 4.305 0 01-3.083 1.31v1.11a5.414 5.414 0 003.877-1.646l-.794-.774zm-3.083 1.31a4.305 4.305 0 01-3.083-1.31l-.794.774a5.414 5.414 0 003.877 1.646v-1.11zm-3.083-1.31a4.56 4.56 0 01-1.284-3.183H.446c0 1.482.573 2.905 1.598 3.957l.794-.774zM1.554 6.012A4.56 4.56 0 012.838 2.83l-.794-.774A5.669 5.669 0 00.446 6.012h1.108zM2.838 2.83a4.305 4.305 0 013.083-1.311V.409a5.414 5.414 0 00-3.877 1.647l.794.774zm3.083-1.311c1.154 0 2.263.47 3.083 1.31l.794-.773A5.414 5.414 0 005.92.41v1.109zm3.083 1.31a4.56 4.56 0 011.284 3.183h1.108a5.669 5.669 0 00-1.598-3.956l-.794.774z" fill="#A37C7C"/></svg><svg fill="none" viewBox="0 0 30 30" id="slider-arrow" xmlns="http://www.w3.org/2000/svg"><path d="M18.75 7.5c.001.292-.1.575-.287.8l-5.6 6.7 5.4 6.712a1.251 1.251 0 01-.62 1.991 1.25 1.25 0 01-1.33-.415l-6.037-7.5a1.25 1.25 0 010-1.588l6.25-7.5a1.25 1.25 0 011.762-.163 1.25 1.25 0 01.463.963z" fill="#976464"/></svg><svg viewBox="0 0 15 15" id="time" xmlns="http://www.w3.org/2000/svg"><path d="M7.494 1.25c-3.45 0-6.244 2.8-6.244 6.25s2.794 6.25 6.244 6.25c3.456 0 6.256-2.8 6.256-6.25s-2.8-6.25-6.256-6.25zM10 10a.624.624 0 01-.881 0L7.063 7.944a.625.625 0 01-.188-.444V5c0-.344.281-.625.625-.625s.625.281.625.625v2.244L10 9.119A.623.623 0 0110 10z"/></svg><svg fill="none" viewBox="0 0 83 83" id="truck" xmlns="http://www.w3.org/2000/svg"><path d="M16.86 60.953a3.89 3.89 0 100 7.781 3.89 3.89 0 000-7.78zm0 5.188a1.297 1.297 0 110-2.594 1.297 1.297 0 010 2.594zM66.14 60.953a3.89 3.89 0 100 7.781 3.89 3.89 0 000-7.78zm0 5.188a1.297 1.297 0 110-2.594 1.297 1.297 0 010 2.594z" fill="#424242"/><path d="M81.497 43.392L69.825 25.236a1.297 1.297 0 00-1.09-.595H53.171v-7.133a4.544 4.544 0 00-4.54-4.54H5.837a4.544 4.544 0 00-4.54 4.54v47.336a1.297 1.297 0 001.298 1.297h5.281a9.077 9.077 0 0017.968 0h31.314a9.077 9.077 0 0017.968 0h5.281a1.297 1.297 0 001.297-1.297v-20.75a1.3 1.3 0 00-.206-.702zM16.86 71.328a6.485 6.485 0 116.485-6.484 6.491 6.491 0 01-6.485 6.484zm33.72-7.781H25.842a9.077 9.077 0 00-17.968 0H3.891V50.578h46.687v12.969zm0-15.563H3.89V17.508a1.947 1.947 0 011.945-1.945h42.797a1.947 1.947 0 011.945 1.945v30.476zm19.948-16.859l7.504 11.672H59.656V31.125h10.871zm-4.386 40.203a6.484 6.484 0 116.484-6.484 6.49 6.49 0 01-6.484 6.484zm12.968-18.156h-2.593a1.297 1.297 0 010-2.594h2.593v2.594zm0-5.188h-2.593a3.891 3.891 0 000 7.782h2.593v7.78h-3.984a9.077 9.077 0 00-17.968 0h-3.985V27.235h14.854l.835 1.297H58.359a1.297 1.297 0 00-1.297 1.297v14.266a1.297 1.297 0 001.297 1.297h20.75v2.593z" fill="#424242"/><path d="M62.25 47.984h-3.89a1.297 1.297 0 100 2.594h3.89a1.297 1.297 0 100-2.594zM35.016 55.766H45.39a1.297 1.297 0 100-2.594H35.016a1.297 1.297 0 100 2.594zM45.39 57.063H41.5a1.297 1.297 0 100 2.593h3.89a1.297 1.297 0 100-2.593z" fill="#424242"/></svg><svg fill="none" viewBox="0 0 16 15" id="user" xmlns="http://www.w3.org/2000/svg"><path d="M3.313 13.125s-.938 0-.938-.938c0-.937.938-3.75 5.625-3.75 4.688 0 5.625 2.813 5.625 3.75 0 .938-.938.938-.938.938H3.313zM8 7.5a2.813 2.813 0 100-5.625A2.813 2.813 0 008 7.5z" fill="#976464"/></svg></svg>